# xmcd
#
# Track frame offsets:
#	183
#	13583
#	29145
#	43533
#	58983
#	74908
#	88383
#	104283
#	116783
#	130308
#	146208
#	159258
#
# Disc length: 2314 seconds
#
# Revision: 3
# Processed by: cddbd v1.5.2PL0 Copyright (c) Steve Scherf et al.
# Submitted via: audiograbber 1.83.01
#
DISCID=bc09080c
DTITLE=TRUCK STOP - TAKE IT EASY, ALTES HAUS
DYEAR=1977
DGENRE=COUNTRY
TTITLE0=TAKE IT EASY, ALTES HAUS
TTITLE1=JEDEN TAG IN EINER ANDERN STADT
TTITLE2=DER KÖNIG VON DER AUTOBAHN
TTITLE3=HENRY'S FARM
TTITLE4=HANNAS MANN
TTITLE5=DU KANNST GEH'N
TTITLE6=ICH MÖCHT SO GERN DAVE DUDLEY HÖR'N
TTITLE7=UNTERWEGS
TTITLE8=DAS MÄDCHEN WIRD SCHÖNER MIT JEDEM GLAS BIER
TTITLE9=KOPF ODER ZAHL
TTITLE10=DIE FRAU MIT DEM GURT
TTITLE11=DER TRAMP
EXTD=
EXTT0=
EXTT1=
EXTT2=
EXTT3=
EXTT4=
EXTT5=
EXTT6=
EXTT7=
EXTT8=
EXTT9=
EXTT10=
EXTT11=
PLAYORDER=
